<mxfile host="app.diagrams.net" modified="2021-09-26T22:46:14.060Z" agent="5.0 (Windows NT 10.0; Win64; x64) AppleWebKit/537.36 (KHTML, like Gecko) Chrome/93.0.4577.82 Safari/537.36" etag="kqOOFFoXrshDcB8QaaiC" version="15.3.4" type="github">
  <diagram id="hsP1dO9LNRXBX3TntuTz" name="Page-1">
    <mxGraphModel dx="1036" dy="571" grid="0" gridSize="10" guides="1" tooltips="1" connect="1" arrows="1" fold="1" page="1" pageScale="1" pageWidth="827" pageHeight="1169" math="0" shadow="0">
      <root>
        <mxCell id="0" />
        <mxCell id="1" parent="0" />
        <mxCell id="CBm0PXSsOIjFgQmYE7kV-1" value="" style="group" parent="1" vertex="1" connectable="0">
          <mxGeometry x="60" y="80" width="720" height="920" as="geometry" />
        </mxCell>
        <mxCell id="EqECs_N4Hb2BWgpRRasq-5" value="3.2" style="swimlane;childLayout=stackLayout;horizontal=1;startSize=30;horizontalStack=0;rounded=1;fontSize=14;fontStyle=1;strokeWidth=2;resizeParent=0;resizeLast=1;shadow=0;dashed=0;align=center;hachureGap=4;pointerEvents=0;fillColor=#dae8fc;strokeColor=#6c8ebf;" parent="CBm0PXSsOIjFgQmYE7kV-1" vertex="1">
          <mxGeometry x="289" y="200" width="130" height="120" as="geometry" />
        </mxCell>
        <mxCell id="EqECs_N4Hb2BWgpRRasq-6" value="View Schedule" style="align=center;spacingLeft=4;fontSize=14;verticalAlign=top;resizable=0;rotatable=0;part=1;" parent="EqECs_N4Hb2BWgpRRasq-5" vertex="1">
          <mxGeometry y="30" width="130" height="90" as="geometry" />
        </mxCell>
        <mxCell id="EqECs_N4Hb2BWgpRRasq-7" value="" style="align=center;spacingLeft=4;fontSize=14;verticalAlign=top;resizable=0;rotatable=0;part=1;" parent="EqECs_N4Hb2BWgpRRasq-5" vertex="1">
          <mxGeometry y="120" width="130" as="geometry" />
        </mxCell>
        <mxCell id="EqECs_N4Hb2BWgpRRasq-8" value="" style="align=center;spacingLeft=4;fontSize=14;verticalAlign=top;resizable=0;rotatable=0;part=1;" parent="EqECs_N4Hb2BWgpRRasq-5" vertex="1">
          <mxGeometry y="120" width="130" as="geometry" />
        </mxCell>
        <mxCell id="EqECs_N4Hb2BWgpRRasq-9" value="3.3" style="swimlane;childLayout=stackLayout;horizontal=1;startSize=30;horizontalStack=0;rounded=1;fontSize=14;fontStyle=1;strokeWidth=2;resizeParent=0;resizeLast=1;shadow=0;dashed=0;align=center;hachureGap=4;pointerEvents=0;fillColor=#dae8fc;strokeColor=#6c8ebf;" parent="CBm0PXSsOIjFgQmYE7kV-1" vertex="1">
          <mxGeometry x="289" y="400" width="130" height="120" as="geometry" />
        </mxCell>
        <mxCell id="EqECs_N4Hb2BWgpRRasq-10" value="Search Schedule" style="align=center;spacingLeft=4;fontSize=14;verticalAlign=top;resizable=0;rotatable=0;part=1;" parent="EqECs_N4Hb2BWgpRRasq-9" vertex="1">
          <mxGeometry y="30" width="130" height="90" as="geometry" />
        </mxCell>
        <mxCell id="EqECs_N4Hb2BWgpRRasq-11" value="" style="align=center;spacingLeft=4;fontSize=14;verticalAlign=top;resizable=0;rotatable=0;part=1;" parent="EqECs_N4Hb2BWgpRRasq-9" vertex="1">
          <mxGeometry y="120" width="130" as="geometry" />
        </mxCell>
        <mxCell id="EqECs_N4Hb2BWgpRRasq-12" value="" style="align=center;spacingLeft=4;fontSize=14;verticalAlign=top;resizable=0;rotatable=0;part=1;" parent="EqECs_N4Hb2BWgpRRasq-9" vertex="1">
          <mxGeometry y="120" width="130" as="geometry" />
        </mxCell>
        <mxCell id="EqECs_N4Hb2BWgpRRasq-13" value="3.4" style="swimlane;childLayout=stackLayout;horizontal=1;startSize=30;horizontalStack=0;rounded=1;fontSize=14;fontStyle=1;strokeWidth=2;resizeParent=0;resizeLast=1;shadow=0;dashed=0;align=center;hachureGap=4;pointerEvents=0;fillColor=#dae8fc;strokeColor=#6c8ebf;" parent="CBm0PXSsOIjFgQmYE7kV-1" vertex="1">
          <mxGeometry x="289" y="600" width="130" height="120" as="geometry" />
        </mxCell>
        <mxCell id="EqECs_N4Hb2BWgpRRasq-14" value="Update Schedule" style="align=center;spacingLeft=4;fontSize=14;verticalAlign=top;resizable=0;rotatable=0;part=1;" parent="EqECs_N4Hb2BWgpRRasq-13" vertex="1">
          <mxGeometry y="30" width="130" height="90" as="geometry" />
        </mxCell>
        <mxCell id="EqECs_N4Hb2BWgpRRasq-15" value="" style="align=center;spacingLeft=4;fontSize=14;verticalAlign=top;resizable=0;rotatable=0;part=1;" parent="EqECs_N4Hb2BWgpRRasq-13" vertex="1">
          <mxGeometry y="120" width="130" as="geometry" />
        </mxCell>
        <mxCell id="EqECs_N4Hb2BWgpRRasq-16" value="" style="align=center;spacingLeft=4;fontSize=14;verticalAlign=top;resizable=0;rotatable=0;part=1;" parent="EqECs_N4Hb2BWgpRRasq-13" vertex="1">
          <mxGeometry y="120" width="130" as="geometry" />
        </mxCell>
        <mxCell id="EqECs_N4Hb2BWgpRRasq-17" value="3.5" style="swimlane;childLayout=stackLayout;horizontal=1;startSize=30;horizontalStack=0;rounded=1;fontSize=14;fontStyle=1;strokeWidth=2;resizeParent=0;resizeLast=1;shadow=0;dashed=0;align=center;hachureGap=4;pointerEvents=0;fillColor=#dae8fc;strokeColor=#6c8ebf;" parent="CBm0PXSsOIjFgQmYE7kV-1" vertex="1">
          <mxGeometry x="289" y="800" width="130" height="120" as="geometry" />
        </mxCell>
        <mxCell id="EqECs_N4Hb2BWgpRRasq-18" value="Delete Schedule" style="align=center;spacingLeft=4;fontSize=14;verticalAlign=top;resizable=0;rotatable=0;part=1;" parent="EqECs_N4Hb2BWgpRRasq-17" vertex="1">
          <mxGeometry y="30" width="130" height="90" as="geometry" />
        </mxCell>
        <mxCell id="EqECs_N4Hb2BWgpRRasq-19" value="" style="align=center;spacingLeft=4;fontSize=14;verticalAlign=top;resizable=0;rotatable=0;part=1;" parent="EqECs_N4Hb2BWgpRRasq-17" vertex="1">
          <mxGeometry y="120" width="130" as="geometry" />
        </mxCell>
        <mxCell id="EqECs_N4Hb2BWgpRRasq-20" value="" style="align=center;spacingLeft=4;fontSize=14;verticalAlign=top;resizable=0;rotatable=0;part=1;" parent="EqECs_N4Hb2BWgpRRasq-17" vertex="1">
          <mxGeometry y="120" width="130" as="geometry" />
        </mxCell>
        <mxCell id="EqECs_N4Hb2BWgpRRasq-21" value="&lt;b&gt;D1&amp;nbsp; TSM Database&lt;/b&gt;" style="html=1;dashed=0;whitespace=wrap;shape=mxgraph.dfd.dataStoreID;align=left;spacingLeft=3;points=[[0,0],[0.5,0],[1,0],[0,0.5],[1,0.5],[0,1],[0.5,1],[1,1]];hachureGap=4;pointerEvents=0;fontSize=14;" parent="CBm0PXSsOIjFgQmYE7kV-1" vertex="1">
          <mxGeometry x="620" y="445" width="100" height="30" as="geometry" />
        </mxCell>
        <mxCell id="EqECs_N4Hb2BWgpRRasq-22" value="&lt;b&gt;Admin&lt;/b&gt;" style="whiteSpace=wrap;html=1;align=center;hachureGap=4;pointerEvents=0;fontSize=14;fillColor=#008a00;strokeColor=#005700;fontColor=#ffffff;" parent="CBm0PXSsOIjFgQmYE7kV-1" vertex="1">
          <mxGeometry width="100" height="40" as="geometry" />
        </mxCell>
        <mxCell id="EqECs_N4Hb2BWgpRRasq-23" value="&lt;b&gt;Office Employee&lt;/b&gt;" style="whiteSpace=wrap;html=1;align=center;hachureGap=4;pointerEvents=0;fontSize=14;fillColor=#f8cecc;strokeColor=#b85450;" parent="CBm0PXSsOIjFgQmYE7kV-1" vertex="1">
          <mxGeometry y="800" width="100" height="40" as="geometry" />
        </mxCell>
        <mxCell id="EqECs_N4Hb2BWgpRRasq-24" value="&lt;b&gt;Driver&lt;/b&gt;" style="whiteSpace=wrap;html=1;align=center;hachureGap=4;pointerEvents=0;fontSize=14;fillColor=#f8cecc;strokeColor=#b85450;" parent="CBm0PXSsOIjFgQmYE7kV-1" vertex="1">
          <mxGeometry x="560" y="800" width="100" height="40" as="geometry" />
        </mxCell>
        <mxCell id="EqECs_N4Hb2BWgpRRasq-26" value="3.1" style="swimlane;childLayout=stackLayout;horizontal=1;startSize=30;horizontalStack=0;rounded=1;fontSize=14;fontStyle=1;strokeWidth=2;resizeParent=0;resizeLast=1;shadow=0;dashed=0;align=center;hachureGap=4;pointerEvents=0;fillColor=#dae8fc;strokeColor=#6c8ebf;" parent="CBm0PXSsOIjFgQmYE7kV-1" vertex="1">
          <mxGeometry x="289" width="130" height="120" as="geometry" />
        </mxCell>
        <mxCell id="EqECs_N4Hb2BWgpRRasq-27" value="Create Schedule" style="align=center;spacingLeft=4;fontSize=14;verticalAlign=top;resizable=0;rotatable=0;part=1;" parent="EqECs_N4Hb2BWgpRRasq-26" vertex="1">
          <mxGeometry y="30" width="130" height="90" as="geometry" />
        </mxCell>
        <mxCell id="EqECs_N4Hb2BWgpRRasq-28" value="" style="align=center;spacingLeft=4;fontSize=14;verticalAlign=top;resizable=0;rotatable=0;part=1;" parent="EqECs_N4Hb2BWgpRRasq-26" vertex="1">
          <mxGeometry y="120" width="130" as="geometry" />
        </mxCell>
        <mxCell id="EqECs_N4Hb2BWgpRRasq-29" value="" style="align=center;spacingLeft=4;fontSize=14;verticalAlign=top;resizable=0;rotatable=0;part=1;" parent="EqECs_N4Hb2BWgpRRasq-26" vertex="1">
          <mxGeometry y="120" width="130" as="geometry" />
        </mxCell>
        <mxCell id="EqECs_N4Hb2BWgpRRasq-31" value="" style="endArrow=classic;html=1;fontSize=14;sourcePerimeterSpacing=8;targetPerimeterSpacing=8;exitX=1;exitY=0.5;exitDx=0;exitDy=0;entryX=-0.026;entryY=0.157;entryDx=0;entryDy=0;entryPerimeter=0;" parent="CBm0PXSsOIjFgQmYE7kV-1" source="EqECs_N4Hb2BWgpRRasq-22" target="EqECs_N4Hb2BWgpRRasq-26" edge="1">
          <mxGeometry width="50" height="50" relative="1" as="geometry">
            <mxPoint x="290" y="260" as="sourcePoint" />
            <mxPoint x="340" y="210" as="targetPoint" />
          </mxGeometry>
        </mxCell>
        <mxCell id="EqECs_N4Hb2BWgpRRasq-32" value="Can" style="text;html=1;align=center;verticalAlign=middle;resizable=0;points=[];autosize=1;strokeColor=none;fillColor=none;fontSize=14;" parent="CBm0PXSsOIjFgQmYE7kV-1" vertex="1">
          <mxGeometry x="170" width="40" height="20" as="geometry" />
        </mxCell>
        <mxCell id="EqECs_N4Hb2BWgpRRasq-33" value="" style="endArrow=classic;html=1;fontSize=14;sourcePerimeterSpacing=8;targetPerimeterSpacing=8;exitX=0.863;exitY=1.021;exitDx=0;exitDy=0;exitPerimeter=0;entryX=-0.015;entryY=0.185;entryDx=0;entryDy=0;entryPerimeter=0;" parent="CBm0PXSsOIjFgQmYE7kV-1" source="EqECs_N4Hb2BWgpRRasq-22" target="EqECs_N4Hb2BWgpRRasq-5" edge="1">
          <mxGeometry width="50" height="50" relative="1" as="geometry">
            <mxPoint x="290" y="170" as="sourcePoint" />
            <mxPoint x="340" y="120" as="targetPoint" />
            <Array as="points">
              <mxPoint x="86" y="222" />
            </Array>
          </mxGeometry>
        </mxCell>
        <mxCell id="EqECs_N4Hb2BWgpRRasq-34" value="Can" style="text;html=1;align=center;verticalAlign=middle;resizable=0;points=[];autosize=1;strokeColor=none;fillColor=none;fontSize=14;" parent="CBm0PXSsOIjFgQmYE7kV-1" vertex="1">
          <mxGeometry x="170" y="200" width="40" height="20" as="geometry" />
        </mxCell>
        <mxCell id="EqECs_N4Hb2BWgpRRasq-35" value="" style="endArrow=classic;html=1;fontSize=14;sourcePerimeterSpacing=8;targetPerimeterSpacing=8;exitX=0.563;exitY=1.087;exitDx=0;exitDy=0;exitPerimeter=0;" parent="CBm0PXSsOIjFgQmYE7kV-1" source="EqECs_N4Hb2BWgpRRasq-22" edge="1">
          <mxGeometry width="50" height="50" relative="1" as="geometry">
            <mxPoint x="290" y="170" as="sourcePoint" />
            <mxPoint x="290" y="630.6666564941406" as="targetPoint" />
            <Array as="points">
              <mxPoint x="56" y="631" />
            </Array>
          </mxGeometry>
        </mxCell>
        <mxCell id="EqECs_N4Hb2BWgpRRasq-36" value="Can" style="text;html=1;align=center;verticalAlign=middle;resizable=0;points=[];autosize=1;strokeColor=none;fillColor=none;fontSize=14;" parent="CBm0PXSsOIjFgQmYE7kV-1" vertex="1">
          <mxGeometry x="170" y="610" width="40" height="20" as="geometry" />
        </mxCell>
        <mxCell id="EqECs_N4Hb2BWgpRRasq-37" value="" style="endArrow=classic;html=1;fontSize=14;sourcePerimeterSpacing=8;targetPerimeterSpacing=8;exitX=0.157;exitY=1.071;exitDx=0;exitDy=0;exitPerimeter=0;entryX=0;entryY=0;entryDx=0;entryDy=0;" parent="CBm0PXSsOIjFgQmYE7kV-1" source="EqECs_N4Hb2BWgpRRasq-22" target="EqECs_N4Hb2BWgpRRasq-18" edge="1">
          <mxGeometry width="50" height="50" relative="1" as="geometry">
            <mxPoint x="290" y="220" as="sourcePoint" />
            <mxPoint x="340" y="170" as="targetPoint" />
            <Array as="points">
              <mxPoint x="16" y="720" />
              <mxPoint x="260" y="720" />
              <mxPoint x="260" y="830" />
            </Array>
          </mxGeometry>
        </mxCell>
        <mxCell id="EqECs_N4Hb2BWgpRRasq-38" value="Can" style="text;html=1;align=center;verticalAlign=middle;resizable=0;points=[];autosize=1;strokeColor=none;fillColor=none;fontSize=14;" parent="CBm0PXSsOIjFgQmYE7kV-1" vertex="1">
          <mxGeometry x="170" y="700" width="40" height="20" as="geometry" />
        </mxCell>
        <mxCell id="EqECs_N4Hb2BWgpRRasq-39" value="" style="endArrow=classic;html=1;fontSize=14;sourcePerimeterSpacing=8;targetPerimeterSpacing=8;exitX=-0.012;exitY=0.394;exitDx=0;exitDy=0;exitPerimeter=0;entryX=0.75;entryY=0;entryDx=0;entryDy=0;" parent="CBm0PXSsOIjFgQmYE7kV-1" source="EqECs_N4Hb2BWgpRRasq-6" target="EqECs_N4Hb2BWgpRRasq-23" edge="1">
          <mxGeometry width="50" height="50" relative="1" as="geometry">
            <mxPoint x="400" y="580" as="sourcePoint" />
            <mxPoint x="450" y="530" as="targetPoint" />
            <Array as="points">
              <mxPoint x="75" y="265" />
            </Array>
          </mxGeometry>
        </mxCell>
        <mxCell id="EqECs_N4Hb2BWgpRRasq-40" value="Can" style="text;html=1;align=center;verticalAlign=middle;resizable=0;points=[];autosize=1;strokeColor=none;fillColor=none;fontSize=14;" parent="CBm0PXSsOIjFgQmYE7kV-1" vertex="1">
          <mxGeometry x="170" y="240" width="40" height="20" as="geometry" />
        </mxCell>
        <mxCell id="EqECs_N4Hb2BWgpRRasq-41" value="" style="endArrow=classic;html=1;fontSize=14;sourcePerimeterSpacing=8;targetPerimeterSpacing=8;exitX=0;exitY=0.5;exitDx=0;exitDy=0;entryX=1;entryY=0;entryDx=0;entryDy=0;" parent="CBm0PXSsOIjFgQmYE7kV-1" source="EqECs_N4Hb2BWgpRRasq-10" target="EqECs_N4Hb2BWgpRRasq-23" edge="1">
          <mxGeometry width="50" height="50" relative="1" as="geometry">
            <mxPoint x="400" y="580" as="sourcePoint" />
            <mxPoint x="450" y="530" as="targetPoint" />
            <Array as="points">
              <mxPoint x="100" y="475" />
            </Array>
          </mxGeometry>
        </mxCell>
        <mxCell id="EqECs_N4Hb2BWgpRRasq-42" value="Can" style="text;html=1;align=center;verticalAlign=middle;resizable=0;points=[];autosize=1;strokeColor=none;fillColor=none;fontSize=14;" parent="CBm0PXSsOIjFgQmYE7kV-1" vertex="1">
          <mxGeometry x="170" y="455" width="40" height="20" as="geometry" />
        </mxCell>
        <mxCell id="EqECs_N4Hb2BWgpRRasq-43" value="" style="endArrow=classic;html=1;fontSize=14;sourcePerimeterSpacing=8;targetPerimeterSpacing=8;exitX=1;exitY=0.75;exitDx=0;exitDy=0;entryX=0.206;entryY=-0.043;entryDx=0;entryDy=0;entryPerimeter=0;" parent="CBm0PXSsOIjFgQmYE7kV-1" source="EqECs_N4Hb2BWgpRRasq-27" target="EqECs_N4Hb2BWgpRRasq-21" edge="1">
          <mxGeometry width="50" height="50" relative="1" as="geometry">
            <mxPoint x="400" y="580" as="sourcePoint" />
            <mxPoint x="450" y="530" as="targetPoint" />
            <Array as="points">
              <mxPoint x="648" y="98" />
            </Array>
          </mxGeometry>
        </mxCell>
        <mxCell id="EqECs_N4Hb2BWgpRRasq-44" value="Store Info" style="text;html=1;align=center;verticalAlign=middle;resizable=0;points=[];autosize=1;strokeColor=none;fillColor=none;fontSize=14;" parent="CBm0PXSsOIjFgQmYE7kV-1" vertex="1">
          <mxGeometry x="515" y="69" width="80" height="20" as="geometry" />
        </mxCell>
        <mxCell id="EqECs_N4Hb2BWgpRRasq-45" value="" style="endArrow=classic;html=1;fontSize=14;sourcePerimeterSpacing=8;targetPerimeterSpacing=8;exitX=0;exitY=0.5;exitDx=0;exitDy=0;" parent="CBm0PXSsOIjFgQmYE7kV-1" source="EqECs_N4Hb2BWgpRRasq-21" edge="1">
          <mxGeometry width="50" height="50" relative="1" as="geometry">
            <mxPoint x="400" y="580" as="sourcePoint" />
            <mxPoint x="420" y="460" as="targetPoint" />
          </mxGeometry>
        </mxCell>
        <mxCell id="EqECs_N4Hb2BWgpRRasq-46" value="Provide Schedule Info" style="text;html=1;align=center;verticalAlign=middle;resizable=0;points=[];autosize=1;strokeColor=none;fillColor=none;fontSize=14;" parent="CBm0PXSsOIjFgQmYE7kV-1" vertex="1">
          <mxGeometry x="445" y="435" width="150" height="20" as="geometry" />
        </mxCell>
        <mxCell id="EqECs_N4Hb2BWgpRRasq-47" value="" style="endArrow=classic;html=1;fontSize=14;sourcePerimeterSpacing=8;targetPerimeterSpacing=8;exitX=0.183;exitY=0.986;exitDx=0;exitDy=0;exitPerimeter=0;entryX=1;entryY=0.5;entryDx=0;entryDy=0;" parent="CBm0PXSsOIjFgQmYE7kV-1" source="EqECs_N4Hb2BWgpRRasq-21" target="EqECs_N4Hb2BWgpRRasq-13" edge="1">
          <mxGeometry width="50" height="50" relative="1" as="geometry">
            <mxPoint x="400" y="730" as="sourcePoint" />
            <mxPoint x="450" y="680" as="targetPoint" />
            <Array as="points">
              <mxPoint x="638" y="660" />
            </Array>
          </mxGeometry>
        </mxCell>
        <mxCell id="EqECs_N4Hb2BWgpRRasq-48" value="Provide Schedule Info" style="text;html=1;align=center;verticalAlign=middle;resizable=0;points=[];autosize=1;strokeColor=none;fillColor=none;fontSize=14;" parent="CBm0PXSsOIjFgQmYE7kV-1" vertex="1">
          <mxGeometry x="445" y="640" width="150" height="20" as="geometry" />
        </mxCell>
        <mxCell id="EqECs_N4Hb2BWgpRRasq-49" value="" style="endArrow=classic;html=1;fontSize=14;sourcePerimeterSpacing=8;targetPerimeterSpacing=8;exitX=1;exitY=0.75;exitDx=0;exitDy=0;entryX=0.7;entryY=1.167;entryDx=0;entryDy=0;entryPerimeter=0;" parent="CBm0PXSsOIjFgQmYE7kV-1" source="EqECs_N4Hb2BWgpRRasq-13" target="EqECs_N4Hb2BWgpRRasq-21" edge="1">
          <mxGeometry width="50" height="50" relative="1" as="geometry">
            <mxPoint x="400" y="730" as="sourcePoint" />
            <mxPoint x="450" y="680" as="targetPoint" />
            <Array as="points">
              <mxPoint x="690" y="690" />
            </Array>
          </mxGeometry>
        </mxCell>
        <mxCell id="EqECs_N4Hb2BWgpRRasq-50" value="Add New Schedule Info" style="text;html=1;align=center;verticalAlign=middle;resizable=0;points=[];autosize=1;strokeColor=none;fillColor=none;fontSize=14;" parent="CBm0PXSsOIjFgQmYE7kV-1" vertex="1">
          <mxGeometry x="460" y="670" width="160" height="20" as="geometry" />
        </mxCell>
        <mxCell id="EqECs_N4Hb2BWgpRRasq-52" value="" style="endArrow=classic;html=1;fontSize=14;sourcePerimeterSpacing=8;targetPerimeterSpacing=8;exitX=1;exitY=0.75;exitDx=0;exitDy=0;" parent="CBm0PXSsOIjFgQmYE7kV-1" source="EqECs_N4Hb2BWgpRRasq-5" edge="1">
          <mxGeometry width="50" height="50" relative="1" as="geometry">
            <mxPoint x="410" y="580" as="sourcePoint" />
            <mxPoint x="620" y="800" as="targetPoint" />
            <Array as="points">
              <mxPoint x="620" y="290" />
            </Array>
          </mxGeometry>
        </mxCell>
        <mxCell id="EqECs_N4Hb2BWgpRRasq-54" value="Can" style="text;html=1;align=center;verticalAlign=middle;resizable=0;points=[];autosize=1;strokeColor=none;fillColor=none;fontSize=14;" parent="CBm0PXSsOIjFgQmYE7kV-1" vertex="1">
          <mxGeometry x="510" y="270" width="40" height="20" as="geometry" />
        </mxCell>
        <mxCell id="EqECs_N4Hb2BWgpRRasq-55" value="" style="endArrow=classic;html=1;fontSize=14;sourcePerimeterSpacing=8;targetPerimeterSpacing=8;exitX=1;exitY=0.5;exitDx=0;exitDy=0;entryX=1;entryY=1;entryDx=0;entryDy=0;" parent="CBm0PXSsOIjFgQmYE7kV-1" source="EqECs_N4Hb2BWgpRRasq-18" target="EqECs_N4Hb2BWgpRRasq-21" edge="1">
          <mxGeometry width="50" height="50" relative="1" as="geometry">
            <mxPoint x="410" y="580" as="sourcePoint" />
            <mxPoint x="460" y="530" as="targetPoint" />
            <Array as="points">
              <mxPoint x="720" y="875" />
            </Array>
          </mxGeometry>
        </mxCell>
        <mxCell id="EqECs_N4Hb2BWgpRRasq-56" value="Remove Schedule Info" style="text;html=1;align=center;verticalAlign=middle;resizable=0;points=[];autosize=1;strokeColor=none;fillColor=none;fontSize=14;" parent="CBm0PXSsOIjFgQmYE7kV-1" vertex="1">
          <mxGeometry x="490" y="850" width="160" height="20" as="geometry" />
        </mxCell>
        <mxCell id="XWxz_DdViXsz8_A6pU9c-1" value="" style="endArrow=classic;html=1;sourcePerimeterSpacing=8;targetPerimeterSpacing=8;" edge="1" parent="CBm0PXSsOIjFgQmYE7kV-1">
          <mxGeometry width="50" height="50" relative="1" as="geometry">
            <mxPoint x="419" y="20" as="sourcePoint" />
            <mxPoint x="663.2000122070312" y="440" as="targetPoint" />
            <Array as="points">
              <mxPoint x="669" y="20" />
            </Array>
          </mxGeometry>
        </mxCell>
        <mxCell id="XWxz_DdViXsz8_A6pU9c-7" value="Retrieves data from location" style="text;html=1;align=center;verticalAlign=middle;resizable=0;points=[];autosize=1;strokeColor=none;fillColor=none;" vertex="1" parent="CBm0PXSsOIjFgQmYE7kV-1">
          <mxGeometry x="474" y="24" width="160" height="18" as="geometry" />
        </mxCell>
        <mxCell id="XWxz_DdViXsz8_A6pU9c-2" value="Retrieves data from transport" style="text;html=1;align=center;verticalAlign=middle;resizable=0;points=[];autosize=1;strokeColor=none;fillColor=none;" vertex="1" parent="CBm0PXSsOIjFgQmYE7kV-1">
          <mxGeometry x="475" width="165" height="18" as="geometry" />
        </mxCell>
        <mxCell id="XWxz_DdViXsz8_A6pU9c-3" value="" style="endArrow=classic;html=1;sourcePerimeterSpacing=8;targetPerimeterSpacing=8;" edge="1" parent="1">
          <mxGeometry width="50" height="50" relative="1" as="geometry">
            <mxPoint x="482" y="127" as="sourcePoint" />
            <mxPoint x="733.2000122070312" y="530" as="targetPoint" />
            <Array as="points">
              <mxPoint x="616" y="127" />
              <mxPoint x="746" y="127" />
            </Array>
          </mxGeometry>
        </mxCell>
        <mxCell id="XWxz_DdViXsz8_A6pU9c-4" value="&lt;span style=&quot;color: rgba(0 , 0 , 0 , 0) ; font-family: monospace ; font-size: 0px&quot;&gt;%3CmxGraphModel%3E%3Croot%3E%3CmxCell%20id%3D%220%22%2F%3E%3CmxCell%20id%3D%221%22%20parent%3D%220%22%2F%3E%3CmxCell%20id%3D%222%22%20value%3D%22Retrieves%20data%20from%20transport%22%20style%3D%22text%3Bhtml%3D1%3Balign%3Dcenter%3BverticalAlign%3Dmiddle%3Bresizable%3D0%3Bpoints%3D%5B%5D%3Bautosize%3D1%3BstrokeColor%3Dnone%3BfillColor%3Dnone%3B%22%20vertex%3D%221%22%20parent%3D%221%22%3E%3CmxGeometry%20x%3D%22553%22%20y%3D%2278%22%20width%3D%22165%22%20height%3D%2218%22%20as%3D%22geometry%22%2F%3E%3C%2FmxCell%3E%3C%2Froot%3E%3C%2FmxGraphModel%3E&lt;/span&gt;" style="text;html=1;align=center;verticalAlign=middle;resizable=0;points=[];autosize=1;strokeColor=none;fillColor=none;" vertex="1" parent="1">
          <mxGeometry x="599" y="101" width="10" height="22" as="geometry" />
        </mxCell>
        <mxCell id="XWxz_DdViXsz8_A6pU9c-6" value="&lt;span style=&quot;color: rgba(0 , 0 , 0 , 0) ; font-family: monospace ; font-size: 0px&quot;&gt;%3CmxGraphModel%3E%3Croot%3E%3CmxCell%20id%3D%220%22%2F%3E%3CmxCell%20id%3D%221%22%20parent%3D%220%22%2F%3E%3CmxCell%20id%3D%222%22%20value%3D%22Retrieves%20data%20from%20transport%22%20style%3D%22text%3Bhtml%3D1%3Balign%3Dcenter%3BverticalAlign%3Dmiddle%3Bresizable%3D0%3Bpoints%3D%5B%5D%3Bautosize%3D1%3BstrokeColor%3Dnone%3BfillColor%3Dnone%3B%22%20vertex%3D%221%22%20parent%3D%221%22%3E%3CmxGeometry%20x%3D%22553%22%20y%3D%2278%22%20width%3D%22165%22%20height%3D%2218%22%20as%3D%22geometry%22%2F%3E%3C%2FmxCell%3E%3C%2Froot%3E%3C%2FmxGraphModel%3E&lt;/span&gt;" style="text;html=1;align=center;verticalAlign=middle;resizable=0;points=[];autosize=1;strokeColor=none;fillColor=none;" vertex="1" parent="1">
          <mxGeometry x="630" y="105" width="10" height="22" as="geometry" />
        </mxCell>
      </root>
    </mxGraphModel>
  </diagram>
</mxfile>
